<svg width="206" height="150" viewBox="0 0 206 150" fill="none" xmlns="http://www.w3.org/2000/svg">
<path opacity="0.1" d="M431.475 33.4804L410.4 21.3096L409.518 21.8199L388.529 33.9398V58.2414L386.72 59.2852C386.72 59.2421 386.707 59.1989 386.701 59.1542L386.766 59.1172V34.9574L365.779 47.0728V71.2356L366.005 71.1061L366.019 71.2171L363.906 72.4366C363.764 72.3873 363.622 72.341 363.477 72.3025C362.737 72.1036 362.009 71.8908 361.282 71.6858L342.146 60.6404L320.277 73.2707V97.5954L318.541 98.5961C318.534 98.521 318.525 98.4455 318.513 98.3694V74.2914L298.354 85.9257L297.526 86.4036V110.57L297.739 110.448C297.739 110.494 297.739 110.54 297.748 110.585L295.898 111.652C295.857 111.516 295.812 111.382 295.763 111.251V86.4113L294.936 85.9334L274.775 74.2914V98.9599H273.893L274.334 99.7308L252.976 112.059L253.094 112.128L273.012 123.63L274.066 124.247L274.775 124.655V126.903L273.893 126.394L273.012 126.903V125.745L272.241 125.295L272.19 125.267L252.031 113.625V136.949L250.507 137.827V137.673C250.508 137.065 250.427 136.461 250.267 135.875V112.608L228.398 99.979L207.471 112.059L207.593 112.13L227.51 123.63L229.274 124.648V149.91L229.545 149.755C229.545 149.813 229.534 149.868 229.529 149.925L226.768 151.512L226.631 151.431L210.89 142.343L204.759 138.809V113.625L183.772 125.745V152.08L183.826 176.286V178.319V181.152H182.062V178.377L182.005 152.938L161.778 164.618L160.136 165.565L158.494 164.618L138.267 152.938L136.504 151.92V124.631L138.267 123.613L158.186 112.136L158.308 112.065L137.388 99.9852L115.518 112.614L113.754 112.599V111.504V86.4036L92.767 74.2837V99.4702L70.9657 112.059L92.767 124.648L92.767 152.959L91.4443 152.196L69.1343 139.313L68.2525 139.822L46.8244 152.196L45.5017 152.959L23.6326 165.587L0 151.942L0 124.652L22.7508 111.516L22.7508 34.4271H24.5113L24.5113 84.296L45.4986 72.1776V45.9796L68.2495 32.8421V8.68239L46.8213 21.0567L45.9395 19.5288L68.2495 6.64569L70.013 5.62811V31.9016L91.0003 19.7832V-6.49031L91.8821 -6.99908L114.633 6.1369L137.385 -6.99908L138.267 -6.49031V19.7832L159.254 31.9016V5.62811L160.136 6.1369L182.887 -6.99908L205.638 6.1369L206.52 5.62811V6.786L207.281 7.22542L206.52 7.66481V31.9016L226.502 20.3629L227.507 19.7832V-6.49031L228.389 -6.99908L251.14 6.1369L273.89 -6.99908L296.641 6.1369L318.45 -6.45483L319.392 -6.99908L320.214 -6.52577L342.143 6.1369L343.114 5.57724V7.61392L343.025 7.66481L343.025 31.9016L343.114 31.8508V35.0083L343.025 34.9574V59.1172L344.104 59.7339L364.018 71.234V47.0728L363.192 46.5979L350.859 39.4779L352.418 38.2646L364.014 44.9605L364.895 45.4693L365.777 44.9605L385.818 33.3972L365.777 21.8338L364.895 21.3235L364.103 21.786L364.103 -6.52422L364.895 -6.98676L387.646 6.14923L410.399 -6.98676L434.031 6.65802L434.031 32.0065L431.475 33.4804ZM275.845 72.7959L295.763 84.296L296.644 84.8064L297.526 84.296L317.443 72.7959L317.565 72.7249L296.644 60.6404L275.725 72.7219L275.845 72.7959ZM229.274 98.4511L250.261 110.57L250.261 86.4113L229.274 74.2914L229.274 98.4511ZM206.523 137.785L211.764 140.815L227.505 149.911V125.751L206.518 113.632L206.523 137.785ZM206.523 110.57L226.437 99.0694L227.516 98.4527L227.516 74.2929L207.344 85.9257L206.518 86.4036L206.523 110.57ZM182.89 124.137L183.772 123.627L203.688 112.136L203.81 112.065L182.89 99.9852L161.969 112.059L162.091 112.13L182.008 123.63L182.89 124.137ZM204.759 110.57L204.759 86.4113L203.931 85.9334L183.772 74.2914L182.89 73.7811L182.008 74.2914L161.021 86.4113L161.021 110.57L182.008 98.4527L182.89 97.9423L184.842 99.0694L204.759 110.57ZM182.008 125.745L181.18 125.267L161.021 113.625V137.785L162.092 138.402L182.008 149.91V125.745ZM139.274 151.502L159.257 163.041L160.139 163.551L161.021 163.041L181.005 151.502L181.126 151.431L160.139 139.313L139.152 151.431L139.274 151.502ZM139.096 125.267L138.27 125.745V149.91L158.185 138.408L159.264 137.791V113.632L139.096 125.267ZM138.27 98.4511L139.349 99.0678L159.265 110.568L159.265 86.4113L158.437 85.9334L138.278 74.2914L138.27 98.4511ZM115.518 110.57L135.434 99.0694L136.513 98.4527L136.513 74.2929L116.346 85.9257L115.518 86.4036V110.57ZM70.0161 137.785L91.0034 149.91L91.0034 125.75L70.0161 113.63V137.785ZM70.0161 110.57L91.0034 98.4511V74.2914L70.0161 86.4113V110.57ZM47.2653 149.91L68.2525 137.79V113.63L47.2653 125.742V149.91ZM22.7539 113.553L1.76666 125.671L1.76666 149.91L22.7539 137.79L22.7539 113.553ZM23.6357 139.318L2.64847 151.436L23.6357 163.554L44.623 151.436L23.6357 139.318ZM45.5017 149.91V125.742L24.5113 113.625L24.5113 137.785L45.5017 149.91ZM45.5017 74.2189L24.5113 86.3327L24.5113 110.57L45.4986 98.4511L45.5017 74.2189ZM25.461 112.064L46.3804 124.145L67.3014 112.064L46.3804 99.9837L25.461 112.064ZM68.2495 110.574V86.4113L47.2653 74.2914L47.2653 98.4511L68.2495 110.574ZM68.2495 34.885L47.2622 47.0034V71.2356L68.2495 59.1172L68.2495 34.885ZM69.8111 61.0429L69.1312 60.6482L48.2118 72.7296L69.1312 84.811L90.0522 72.7296L69.8111 61.0429ZM113.747 7.66945L92.7593 -4.45053V19.7832L113.747 31.9016V7.66945ZM113.747 33.9445L91.879 21.3096L90.9972 21.8199L70.9565 33.3833L70.0223 34.6936L70.0069 34.9497L70.0069 59.1172L73.2442 60.9843L90.9988 71.2356V71.157L91.8805 71.6673L92.7623 71.157V71.2356L113.75 59.1172L113.747 33.9445ZM114.505 60.7191L111.303 62.5739L93.7289 72.7249L114.648 84.8064L135.448 72.7959L135.569 72.7249L114.636 60.6404L114.505 60.7191ZM136.499 71.2402V47.0728L135.671 46.5979L115.51 34.9559L115.51 59.1172L116.517 59.6969L136.499 71.2402ZM136.499 -4.45053L115.51 7.66945V31.9016L136.499 19.7832V-4.45053ZM137.381 21.3142L136.499 21.8245L116.458 33.3879L136.499 44.9513L137.381 45.4601L138.262 44.9513L158.178 33.4511L158.3 33.3802L137.381 21.3142ZM159.25 34.9621L139.089 46.6041L138.262 47.0789V71.2356L158.177 59.7354L159.256 59.1187L159.25 34.9621ZM139.209 72.7357L139.331 72.8067L160.13 84.8171L180.928 72.8067L181.049 72.7357L160.139 60.6404L139.209 72.7357ZM181.999 71.2464V47.0728L161.012 34.9528V59.1172L181.999 71.2464ZM181.999 -4.44435L161.772 7.23619L161.012 7.6756V31.9016L180.994 20.3629L181.999 19.7832V-4.44435ZM181.999 21.8307L161.958 33.3941L181.999 44.9574L182.881 45.4662L183.763 44.9574L203.678 33.4573L203.8 33.3864L182.881 21.305L181.999 21.8307ZM204.75 7.6756L203.988 7.23619L183.763 -4.44435V19.7832L184.768 20.3629L204.75 31.9016V7.6756ZM205.841 60.7761L204.75 60.1471V34.9682L184.589 46.6102L183.763 47.0882V72.1761L184.833 72.7928L204.719 84.2714L204.755 84.2929L205.636 84.8033L206.518 84.2929L215.151 79.3084L226.559 72.7219L206.518 61.1585L205.841 60.7761ZM206.514 59.128L227.501 71.2464V47.0728L206.514 34.9559V59.128ZM207.462 33.4018L207.583 33.4727L227.501 44.9729L228.383 45.4817L229.264 44.9729L249.18 33.4727L249.302 33.4018L228.383 21.3204L207.462 33.4018ZM250.252 7.6756L249.49 7.23619L229.264 -4.44435V19.7832L230.269 20.3629L250.252 31.9016V7.6756ZM250.252 34.9651L230.091 46.6071L229.264 47.082V71.2356L249.179 59.7354L250.258 59.1187L250.252 34.9651ZM230.211 72.7388L230.333 72.8097L250.25 84.3099L252.014 85.3275L252.014 110.57L271.937 99.0694L273.016 98.4527V73.2754L251.143 60.6404L230.211 72.7388ZM273.016 71.2356V47.0728L252.029 34.9528V59.1172L273.016 71.2356ZM273.016 -4.45514L252.789 7.22542L252.029 7.66481V31.9016L272.011 20.3629L273.016 19.7832L273.016 -4.45514ZM295.767 7.66481L274.78 -4.45514L274.78 19.7832L295.767 31.9016L295.767 7.66481ZM318.518 -4.45514L318.463 -4.42278L297.528 7.66481L297.528 31.9016L318.513 19.7832L318.518 -4.45514ZM319.4 21.3096L318.518 21.8199L297.528 33.9398V34.9621L296.646 34.4487L295.764 34.9621V33.9398L273.895 21.3096L252.976 33.391L253.097 33.4619L273.015 44.9621L274.778 45.9796V71.2356L294.696 59.7354L296.647 58.6084L298.601 59.7354L318.516 71.2356V45.9796L320.28 44.9621L340.197 33.4619L340.319 33.391L319.4 21.3096ZM341.269 7.66481L340.509 7.22542L320.282 -4.45514L320.282 19.7832L321.287 20.3629L341.269 31.9016L341.269 7.66481ZM341.269 34.9544L321.109 46.5964L320.282 47.0743V71.2356L340.197 59.7354L341.269 59.1187V34.9544ZM386.771 7.66481L365.783 -4.45514L365.783 19.7832L386.771 31.9016L386.771 7.66481ZM409.523 -4.45514L388.534 7.66481L388.534 31.9016L409.523 19.7832L409.523 -4.45514ZM432.263 7.66481L411.276 -4.45514L411.276 19.7832L432.263 31.9016L432.263 7.66481Z" fill="black"/>
</svg>
