<svg width="161" height="150" viewBox="0 0 161 150" fill="none" xmlns="http://www.w3.org/2000/svg">
<path opacity="0.4" d="M432.444 33.4804L411.369 21.3096L410.487 21.8199L389.498 33.9398V58.2414L387.688 59.2852C387.688 59.2421 387.676 59.1989 387.67 59.1542L387.734 59.1172V34.9574L366.747 47.0728V71.2356L366.974 71.1061L366.988 71.2171L364.874 72.4366C364.732 72.3873 364.59 72.341 364.445 72.3025C363.706 72.1036 362.978 71.8908 362.25 71.6858L343.114 60.6404L321.245 73.2707V97.5954L319.51 98.5961C319.502 98.521 319.493 98.4455 319.482 98.3694V74.2914L299.322 85.9257L298.495 86.4036V110.57L298.707 110.448C298.707 110.494 298.707 110.54 298.716 110.585L296.867 111.652C296.825 111.516 296.78 111.382 296.731 111.251V86.4113L295.905 85.9334L275.744 74.2914V98.9599H274.862L275.303 99.7308L253.944 112.059L254.063 112.128L273.98 123.63L275.035 124.247L275.744 124.655V126.903L274.862 126.394L273.98 126.903V125.745L273.209 125.295L273.158 125.267L252.999 113.625V136.949L251.476 137.827V137.673C251.477 137.065 251.396 136.461 251.235 135.875V112.608L229.366 99.979L208.439 112.059L208.561 112.13L228.478 123.63L230.242 124.648V149.91L230.513 149.755C230.513 149.813 230.503 149.868 230.498 149.925L227.737 151.512L227.6 151.431L211.858 142.343L205.728 138.809V113.625L184.74 125.745V152.08L184.794 176.286V178.319V181.152H183.031V178.377L182.974 152.938L162.746 164.618L161.105 165.565L159.463 164.618L139.236 152.938L137.472 151.92V124.631L139.236 123.613L159.154 112.136L159.276 112.065L138.357 99.9852L116.486 112.614L114.723 112.599V111.504V86.4036L93.7354 74.2837V99.4702L71.9342 112.059L93.7354 124.648L93.7354 152.959L92.4127 152.196L70.1027 139.313L69.2209 139.822L47.7928 152.196L46.4701 152.959L24.6011 165.587L0.968414 151.942L0.968414 124.652L23.7193 111.516L23.7193 34.4271H25.4798L25.4798 84.296L46.467 72.1776V45.9796L69.2179 32.8421V8.68239L47.7897 21.0567L46.9079 19.5288L69.2179 6.64569L70.9815 5.62811V31.9016L91.9687 19.7832V-6.49031L92.8505 -6.99908L115.601 6.1369L138.354 -6.99908L139.236 -6.49031V19.7832L160.223 31.9016V5.62811L161.105 6.1369L183.855 -6.99908L206.606 6.1369L207.488 5.62811V6.786L208.25 7.22542L207.488 7.66481V31.9016L227.47 20.3629L228.475 19.7832V-6.49031L229.357 -6.99908L252.108 6.1369L274.859 -6.99908L297.61 6.1369L319.419 -6.45483L320.361 -6.99908L321.182 -6.52577L343.111 6.1369L344.083 5.57724V7.61392L343.993 7.66481L343.993 31.9016L344.083 31.8508V35.0083L343.993 34.9574V59.1172L345.072 59.7339L364.987 71.234V47.0728L364.16 46.5979L351.828 39.4779L353.386 38.2646L364.982 44.9605L365.864 45.4693L366.746 44.9605L386.786 33.3972L366.746 21.8338L365.864 21.3235L365.071 21.786L365.071 -6.52422L365.864 -6.98676L388.615 6.14923L411.367 -6.98676L435 6.65802L435 32.0065L432.444 33.4804ZM276.814 72.7959L296.731 84.296L297.613 84.8064L298.495 84.296L318.412 72.7959L318.534 72.7249L297.613 60.6404L276.693 72.7219L276.814 72.7959ZM230.242 98.4511L251.229 110.57L251.229 86.4113L230.242 74.2914L230.242 98.4511ZM207.491 137.785L212.733 140.815L228.474 149.911V125.751L207.486 113.632L207.491 137.785ZM207.491 110.57L227.405 99.0694L228.485 98.4527L228.485 74.2929L208.313 85.9257L207.486 86.4036L207.491 110.57ZM183.859 124.137L184.74 123.627L204.656 112.136L204.778 112.065L183.859 99.9852L162.938 112.059L163.059 112.13L182.977 123.63L183.859 124.137ZM205.728 110.57L205.728 86.4113L204.9 85.9334L184.74 74.2914L183.859 73.7811L182.977 74.2914L161.989 86.4113L161.989 110.57L182.977 98.4527L183.859 97.9423L185.81 99.0694L205.728 110.57ZM182.977 125.745L182.149 125.267L161.989 113.625V137.785L163.061 138.402L182.977 149.91V125.745ZM140.242 151.502L160.226 163.041L161.108 163.551L161.989 163.041L181.973 151.502L182.095 151.431L161.108 139.313L140.12 151.431L140.242 151.502ZM140.065 125.267L139.239 125.745V149.91L159.153 138.408L160.232 137.791V113.632L140.065 125.267ZM139.239 98.4511L140.318 99.0678L160.234 110.568L160.234 86.4113L159.406 85.9334L139.246 74.2914L139.239 98.4511ZM116.486 110.57L136.402 99.0694L137.481 98.4527L137.481 74.2929L117.314 85.9257L116.486 86.4036V110.57ZM70.9845 137.785L91.9718 149.91L91.9718 125.75L70.9845 113.63V137.785ZM70.9845 110.57L91.9718 98.4511V74.2914L70.9845 86.4113V110.57ZM48.2337 149.91L69.2209 137.79V113.63L48.2337 125.742V149.91ZM23.7223 113.553L2.73507 125.671L2.73507 149.91L23.7223 137.79L23.7223 113.553ZM24.6041 139.318L3.61688 151.436L24.6041 163.554L45.5914 151.436L24.6041 139.318ZM46.4701 149.91V125.742L25.4798 113.625L25.4798 137.785L46.4701 149.91ZM46.4701 74.2189L25.4798 86.3327L25.4798 110.57L46.467 98.4511L46.4701 74.2189ZM26.4294 112.064L47.3488 124.145L68.2698 112.064L47.3488 99.9837L26.4294 112.064ZM69.2179 110.574V86.4113L48.2337 74.2914L48.2337 98.4511L69.2179 110.574ZM69.2179 34.885L48.2306 47.0034V71.2356L69.2179 59.1172L69.2179 34.885ZM70.7795 61.0429L70.0997 60.6482L49.1802 72.7296L70.0997 84.811L91.0206 72.7296L70.7795 61.0429ZM114.715 7.66945L93.7277 -4.45053V19.7832L114.715 31.9016V7.66945ZM114.715 33.9445L92.8474 21.3096L91.9656 21.8199L71.9249 33.3833L70.9907 34.6936L70.9753 34.9497L70.9753 59.1172L74.2126 60.9843L91.9672 71.2356V71.157L92.849 71.6673L93.7308 71.157V71.2356L114.718 59.1172L114.715 33.9445ZM115.473 60.7191L112.272 62.5739L94.6973 72.7249L115.617 84.8064L136.416 72.7959L136.538 72.7249L115.604 60.6404L115.473 60.7191ZM137.467 71.2402V47.0728L136.639 46.5979L116.479 34.9559L116.479 59.1172L117.485 59.6969L137.467 71.2402ZM137.467 -4.45053L116.479 7.66945V31.9016L137.467 19.7832V-4.45053ZM138.349 21.3142L137.467 21.8245L117.427 33.3879L137.467 44.9513L138.349 45.4601L139.231 44.9513L159.147 33.4511L159.269 33.3802L138.349 21.3142ZM160.218 34.9621L140.057 46.6041L139.231 47.0789V71.2356L159.145 59.7354L160.224 59.1187L160.218 34.9621ZM140.177 72.7357L140.299 72.8067L161.098 84.8171L181.896 72.8067L182.018 72.7357L161.108 60.6404L140.177 72.7357ZM182.967 71.2464V47.0728L161.98 34.9528V59.1172L182.967 71.2464ZM182.967 -4.44435L162.74 7.23619L161.98 7.6756V31.9016L181.962 20.3629L182.967 19.7832V-4.44435ZM182.967 21.8307L162.927 33.3941L182.967 44.9574L183.849 45.4662L184.731 44.9574L204.647 33.4573L204.769 33.3864L183.849 21.305L182.967 21.8307ZM205.718 7.6756L204.957 7.23619L184.731 -4.44435V19.7832L185.736 20.3629L205.718 31.9016V7.6756ZM206.81 60.7761L205.718 60.1471V34.9682L185.557 46.6102L184.731 47.0882V72.1761L185.801 72.7928L205.687 84.2714L205.723 84.2929L206.605 84.8033L207.486 84.2929L216.119 79.3084L227.527 72.7219L207.486 61.1585L206.81 60.7761ZM207.482 59.128L228.469 71.2464V47.0728L207.482 34.9559V59.128ZM208.43 33.4018L208.552 33.4727L228.469 44.9729L229.351 45.4817L230.233 44.9729L250.149 33.4727L250.27 33.4018L229.351 21.3204L208.43 33.4018ZM251.22 7.6756L250.458 7.23619L230.233 -4.44435V19.7832L231.238 20.3629L251.22 31.9016V7.6756ZM251.22 34.9651L231.059 46.6071L230.233 47.082V71.2356L250.147 59.7354L251.226 59.1187L251.22 34.9651ZM231.179 72.7388L231.301 72.8097L251.218 84.3099L252.982 85.3275L252.982 110.57L272.906 99.0694L273.985 98.4527V73.2754L252.111 60.6404L231.179 72.7388ZM273.985 71.2356V47.0728L252.997 34.9528V59.1172L273.985 71.2356ZM273.985 -4.45514L253.757 7.22542L252.997 7.66481V31.9016L272.98 20.3629L273.985 19.7832L273.985 -4.45514ZM296.736 7.66481L275.748 -4.45514L275.748 19.7832L296.736 31.9016L296.736 7.66481ZM319.486 -4.45514L319.431 -4.42278L298.496 7.66481L298.496 31.9016L319.482 19.7832L319.486 -4.45514ZM320.368 21.3096L319.486 21.8199L298.496 33.9398V34.9621L297.614 34.4487L296.733 34.9621V33.9398L274.863 21.3096L253.944 33.391L254.066 33.4619L273.983 44.9621L275.747 45.9796V71.2356L295.664 59.7354L297.616 58.6084L299.569 59.7354L319.485 71.2356V45.9796L321.248 44.9621L341.166 33.4619L341.288 33.391L320.368 21.3096ZM342.237 7.66481L341.477 7.22542L321.25 -4.45514L321.25 19.7832L322.255 20.3629L342.237 31.9016L342.237 7.66481ZM342.237 34.9544L322.078 46.5964L321.25 47.0743V71.2356L341.166 59.7354L342.237 59.1187V34.9544ZM387.739 7.66481L366.752 -4.45514L366.752 19.7832L387.739 31.9016L387.739 7.66481ZM410.491 -4.45514L389.503 7.66481L389.503 31.9016L410.491 19.7832L410.491 -4.45514ZM433.231 7.66481L412.244 -4.45514L412.244 19.7832L433.231 31.9016L433.231 7.66481Z" fill="black"/>
</svg>
