<svg width="14" height="22" viewBox="0 0 14 22" fill="none" xmlns="http://www.w3.org/2000/svg">
<path d="M13.6792 3.13242V1.06189C13.6792 0.882423 13.473 0.783316 13.3337 0.893137L1.2587 10.3244C1.15611 10.4042 1.07309 10.5063 1.01599 10.6231C0.958884 10.7398 0.929199 10.8681 0.929199 10.998C0.929199 11.128 0.958884 11.2563 1.01599 11.373C1.07309 11.4898 1.15611 11.5919 1.2587 11.6717L13.3337 21.103C13.4757 21.2128 13.6792 21.1137 13.6792 20.9342V18.8637C13.6792 18.7324 13.6176 18.6065 13.5158 18.5262L3.87299 10.9994L13.5158 3.46992C13.6176 3.38957 13.6792 3.26367 13.6792 3.13242Z" fill="white" fill-opacity="0.85"/>
</svg>
