<svg width="20" height="21" viewBox="0 0 20 21" fill="none" xmlns="http://www.w3.org/2000/svg">
<path d="M5.5 1.80396H12.6C14.8402 1.80396 15.9603 1.80396 16.816 2.23993C17.5686 2.62342 18.1805 3.23534 18.564 3.98799C19 4.84364 19 5.96375 19 8.20396V15.304M4.2 19.804H12.3C13.4201 19.804 13.9802 19.804 14.408 19.586C14.7843 19.3942 15.0903 19.0883 15.282 18.7119C15.5 18.2841 15.5 17.7241 15.5 16.604V8.50395C15.5 7.38385 15.5 6.8238 15.282 6.39597C15.0903 6.01965 14.7843 5.71369 14.408 5.52194C13.9802 5.30396 13.4201 5.30396 12.3 5.30396H4.2C3.0799 5.30396 2.51984 5.30396 2.09202 5.52194C1.71569 5.71369 1.40973 6.01965 1.21799 6.39597C1 6.8238 1 7.38385 1 8.50395V16.604C1 17.7241 1 18.2841 1.21799 18.7119C1.40973 19.0883 1.71569 19.3942 2.09202 19.586C2.51984 19.804 3.0799 19.804 4.2 19.804Z" stroke="white" stroke-opacity="0.85" stroke-width="2" stroke-linecap="round" stroke-linejoin="round"/>
</svg>
