<svg width="22" height="21" viewBox="0 0 22 21" fill="none" xmlns="http://www.w3.org/2000/svg">
<path d="M9.74294 3.89627C10.1494 3.83619 10.5686 3.80396 11.0004 3.80396C16.1054 3.80396 19.4553 8.3088 20.5807 10.0908C20.7169 10.3065 20.785 10.4143 20.8231 10.5806C20.8518 10.7055 20.8517 10.9026 20.8231 11.0275C20.7849 11.1939 20.7164 11.3024 20.5792 11.5195C20.2793 11.9941 19.8222 12.6611 19.2165 13.3844M5.72432 5.51899C3.56225 6.98566 2.09445 9.02333 1.42111 10.0892C1.28428 10.3058 1.21587 10.4141 1.17774 10.5804C1.1491 10.7054 1.14909 10.9024 1.17771 11.0273C1.21583 11.1936 1.28393 11.3015 1.42013 11.5171C2.54554 13.2991 5.89541 17.804 11.0004 17.804C13.0588 17.804 14.8319 17.0716 16.2888 16.0806M2.00042 1.80396L20.0004 19.804M8.8791 8.68263C8.3362 9.22553 8.00042 9.97553 8.00042 10.804C8.00042 12.4608 9.34356 13.804 11.0004 13.804C11.8288 13.804 12.5788 13.4682 13.1217 12.9253" stroke="white" stroke-opacity="0.85" stroke-width="2" stroke-linecap="round" stroke-linejoin="round"/>
</svg>
