<svg width="24" height="25" viewBox="0 0 24 25" fill="none" xmlns="http://www.w3.org/2000/svg">
<path d="M18.7955 12.1296L6.72054 2.69833C6.68899 2.67349 6.65107 2.65805 6.61114 2.65379C6.57121 2.64953 6.53088 2.65662 6.4948 2.67424C6.45871 2.69186 6.42833 2.71931 6.40714 2.75342C6.38595 2.78753 6.37481 2.82693 6.375 2.86708V4.93762C6.375 5.06887 6.43661 5.19476 6.5384 5.27512L16.1813 12.8046L6.5384 20.334C6.43393 20.4144 6.375 20.5403 6.375 20.6715V22.7421C6.375 22.9215 6.58125 23.0207 6.72054 22.9108L18.7955 13.4796C18.8982 13.3995 18.9812 13.2971 19.0383 13.1802C19.0954 13.0632 19.1251 12.9347 19.1251 12.8046C19.1251 12.6744 19.0954 12.546 19.0383 12.429C18.9812 12.312 18.8982 12.2096 18.7955 12.1296Z" fill="white" fill-opacity="0.85"/>
</svg>
